<svg width="132" height="33" viewBox="0 0 132 33" fill="none" xmlns="http://www.w3.org/2000/svg">
<path d="M2.91048 29V1.01459H9.81355C11.8409 1.01459 13.4517 1.63027 14.6457 2.86163C15.8397 4.08055 16.4368 5.7037 16.4368 7.73109V11.2199C16.4368 13.2349 15.8397 14.858 14.6457 16.0894C13.4517 17.3208 11.8409 17.9364 9.81355 17.9364H7.20158V29H2.91048ZM7.20158 13.6453H9.81355C10.5474 13.6453 11.1195 13.4277 11.53 12.9923C11.9404 12.5446 12.1457 11.9538 12.1457 11.2199V7.73109C12.1457 6.99725 11.9404 6.41267 11.53 5.97734C11.1195 5.52957 10.5474 5.30569 9.81355 5.30569H7.20158V13.6453ZM24.8018 29H20.5107V1.01459H24.8018V29ZM30.6408 29V1.01459H33.9618L41.126 20.6977L39.9693 20.7536V1.01459H43.9805V29H40.6782L33.4953 9.29827L34.6521 9.2423V29H30.6408ZM49.8079 29V1.01459H53.1288L60.2931 20.6977L59.1364 20.7536V1.01459H63.1476V29H59.8453L52.6624 9.29827L53.8191 9.2423V29H49.8079ZM66.7735 29L72.3332 1.01459H76.9602L82.4453 29H78.0423L77.2214 24.2238H72.0161L71.1765 29H66.7735ZM72.6877 19.9327H76.5497L74.3482 6.87287H74.9452L72.6877 19.9327ZM93.7275 32.4142L90.6491 20.8283H95.0522L98.0932 32.4142H93.7275ZM91.9178 29.597C89.8531 29.597 88.1988 28.9627 86.955 27.694C85.7237 26.4253 85.108 24.7587 85.108 22.694V7.32064C85.108 5.2435 85.7237 3.57681 86.955 2.32058C88.1988 1.0519 89.8531 0.417569 91.9178 0.417569C93.9949 0.417569 95.6492 1.0519 96.8805 2.32058C98.1119 3.57681 98.7276 5.2435 98.7276 7.32064V22.694C98.7276 24.7587 98.1119 26.4253 96.8805 27.694C95.6492 28.9627 93.9949 29.597 91.9178 29.597ZM91.9178 25.3059C92.7014 25.3059 93.3171 25.0696 93.7648 24.597C94.2126 24.1119 94.4365 23.4775 94.4365 22.694V7.32064C94.4365 6.53705 94.2126 5.90893 93.7648 5.43629C93.3171 4.95121 92.7014 4.70867 91.9178 4.70867C91.1342 4.70867 90.5185 4.95121 90.0707 5.43629C89.623 5.90893 89.3991 6.53705 89.3991 7.32064V22.694C89.3991 23.4775 89.623 24.1119 90.0707 24.597C90.5185 25.0696 91.1342 25.3059 91.9178 25.3059ZM108.43 1.01459V24.7089H114.867V29H104.139V1.01459H108.43ZM129.897 1.01459V5.30569H122.714V12.302H128.89V16.5931H122.714V24.7089H129.897V29H118.423V1.01459H129.897Z" fill="#222222"/>
</svg>
